<svg xmlns="http://www.w3.org/2000/svg" height="410" width="750" viewBox="0 0 750.00002 410">
  <path style="text-decoration-color:#000000;isolation:auto;mix-blend-mode:normal;block-progression:tb;text-decoration-line:none;text-decoration-style:solid;text-indent:0;text-transform:none" d="M460.9986 81c-27.602 0-50 22.398-50 50s22.398 50 50 50 50-22.398 50-50-22.398-50-50-50zm0 2c26.522 0 48 21.478 48 48s-21.478 48-48 48-48-21.478-48-48 21.478-48 48-48z" fill="#67a9cf" color="#000" solid-color="#000000" white-space="normal"/>
  <path d="M435.5586 122.61h-1.0767v-16.062h5.8447v1.0327h-4.7681v6.8115h4.5044v1.0437h-4.5044v7.1741zM443.3186 110.69v7.7783q0 1.7688.41748 2.5818.42846.81299 1.3074.81299 1.3513 0 1.9775-1.0876.63721-1.0986.63721-3.5376v-6.5478h1.0327v11.92h-.87891l-.13183-1.6699h-.0879q-.38452.91187-1.0657 1.4062-.68115.4834-1.4832.4834-1.4392 0-2.1094-1.0217-.65918-1.0217-.65918-3.3398v-7.7783h1.0437zM452.9386 122.61h-1.0437v-17.095h1.0437v17.095zM459.1586 111.61h-1.8677v10.997h-1.0327V111.61h-1.5161v-.59326l1.5161-.45044v-.90088q0-2.2742.53833-3.2739.53833-.99975 1.8677-.99975.76904 0 1.3953.27465l-.36255.9668q-.58227-.27466-1.0547-.27466-.53833 0-.81298.31861-.27466.3186-.4065 1.0327-.13183.71411-.13183 1.9775v.99976h1.8677v.92285zm2.9773 10.997h-1.0437v-11.92h1.0437v11.92zm-1.1975-15.227q0-.49438.19775-.76904.20874-.27466.52734-.27466.29664 0 .47242.27466t.17578.76904q0 .47241-.17578.75806-.17578.27466-.47242.27466-.3186 0-.52734-.27466-.19775-.28565-.19775-.75806zM466.3886 122.61h-1.0437v-17.095h1.0437v17.095zM470.6086 122.61h-1.0437v-17.095h1.0437v17.095zM477.1686 122.83q-1.8896 0-2.9114-1.604-1.0108-1.615-1.0108-4.4934 0-3.0542.90088-4.6582.91187-1.615 2.6148-1.615 1.4832 0 2.3401 1.4172.85693 1.4062.85693 3.8013v.9668h-5.647q.022 2.6038.73608 3.9001.71411 1.2964 2.1643 1.2964 1.1206 0 2.3621-.73608v1.0107q-1.1426.71411-2.406.71411zm-.47241-11.426q-2.1533 0-2.3621 4.2956h4.5813q0-1.9666-.60425-3.1311-.59326-1.1646-1.615-1.1646zM485.5286 122.83q-3.4717 0-3.4717-6.1633 0-3.0322.86792-4.6143.86792-1.593 2.5598-1.593.80201 0 1.5161.46143.72509.46143 1.1536 1.2744h.0879l-.0439-1.3293v-5.3503h1.0437v17.095h-.85694l-.0879-1.6699h-.0989q-.42847.91187-1.1096 1.4062-.68115.4834-1.5601.4834zm.0659-.91187q1.2524 0 1.9226-1.1536.68116-1.1646.68116-3.4168v-.68115q0-2.7026-.65918-3.9551-.6482-1.2634-1.9885-1.2634-1.2854 0-1.8457 1.3513-.5603 1.3403-.5603 3.8892 0 2.5708.58227 3.9002.58228 1.3293 1.8677 1.3293zM436.7086 144.57q0-2.8455.85693-5.4272.85693-2.5928 2.406-4.4714h.8789q-1.4722 2.1753-2.2302 4.7241-.75806 2.5378-.75806 5.1526 0 2.6697.79102 5.2624.802 2.5928 2.1753 4.4824h-.85693q-1.571-1.8347-2.417-4.3616-.84594-2.5268-.84594-5.3613zM449.4286 134.67h1.1096l-3.8013 16.062h-1.1975l-3.7793-16.062h1.1206l2.6148 11.294q.30762 1.2964.40649 1.9116.0989.60425.19776 1.5271.0879-.63721.18677-1.2524.0989-.61524.18676-1.0327.0989-.42847 2.9553-12.448zM456.7586 150.73l-.13184-1.6699h-.0439q-.85693 1.8896-2.5928 1.8896-1.1646 0-1.8787-.92285-.70313-.93384-.70313-2.4939 0-1.7029 1.0217-2.6916 1.0217-.99975 2.8674-1.0876l1.2854-.0659v-.98877q0-1.6699-.41748-2.428-.41748-.76904-1.3843-.76904-1.0217 0-2.0874.67016l-.45044-.82397q1.2415-.76905 2.6038-.76905 1.4722 0 2.1204.93384.64819.92285.64819 3.0982v8.1189h-.85693zm-2.5378-.67016q1.1206 0 1.7358-1.0986.62622-1.1096.62622-3.1311v-1.2414l-1.2414.0659q-1.4392.0769-2.1423.80201-.69214.71411-.69214 2.0984 0 1.2964.46142 1.9006.46143.60425 1.2524.60425zM461.7986 150.73h-1.0437v-17.095h1.0437v17.095zM465.9686 138.81v7.7783q0 1.7688.41748 2.5818.42846.81299 1.3074.81299 1.3513 0 1.9775-1.0876.6372-1.0986.6372-3.5376v-6.5478h1.0327v11.92h-.87891l-.13183-1.6699h-.0879q-.38452.91187-1.0657 1.4062-.68115.4834-1.4832.4834-1.4392 0-2.1094-1.0217-.65918-1.0217-.65918-3.3398v-7.7783h1.0437zM477.9386 150.95q-1.8896 0-2.9114-1.604-1.0107-1.615-1.0107-4.4934 0-3.0542.90088-4.6582.91186-1.615 2.6147-1.615 1.4832 0 2.3401 1.4172.85693 1.4062.85693 3.8013v.9668h-5.647q.022 2.6038.73609 3.9001.71411 1.2964 2.1643 1.2964 1.1206 0 2.3621-.73608v1.0107q-1.1426.71411-2.406.71411zm-.47242-11.426q-2.1533 0-2.3621 4.2956h4.5813q0-1.9666-.60425-3.1311-.59326-1.1646-1.615-1.1646zM486.8586 144.57q0 2.8345-.84594 5.3723-.83496 2.5268-2.417 4.3506h-.85694q1.4172-1.9885 2.1863-4.5593.78003-2.5708.78003-5.1856 0-2.6257-.75806-5.1526-.75805-2.5378-2.2302-4.7241h.87891q1.571 1.8677 2.417 4.4714.84594 2.6038.84594 5.4272z"/>
  <path style="text-decoration-color:#000000;isolation:auto;mix-blend-mode:normal;block-progression:tb;text-decoration-line:none;text-decoration-style:solid;text-indent:0;text-transform:none" d="M460.9986 281c-27.602 0-50 22.398-50 50s22.398 50 50 50 50-22.398 50-50-22.398-50-50-50zm0 2c26.522 0 48 21.478 48 48s-21.478 48-48 48-48-21.478-48-48 21.478-48 48-48z" fill="#67a9cf" color="#000" solid-color="#000000" white-space="normal"/>
  <g>
    <path d="M433.6086 315.59v7.0203h-1.0767v-16.062h2.1973q2.3511 0 3.4387 1.1096t1.0876 3.3179q0 1.6699-.59327 2.7466-.59326 1.0767-1.9885 1.615l3.186 7.273h-1.2085l-2.9993-7.0203h-2.0435zm0-.98877h1.5051q1.4612 0 2.2522-.90088.79101-.90088.79101-2.6807 0-1.8128-.81299-2.6148-.802-.802-2.5378-.802h-1.1975v6.9983zM445.3286 322.83q-1.8896 0-2.9114-1.604-1.0107-1.615-1.0107-4.4934 0-3.0542.90087-4.6582.91187-1.615 2.6148-1.615 1.4832 0 2.3401 1.4172.85693 1.4062.85693 3.8013v.9668h-5.647q.022 2.6038.73608 3.9001.71411 1.2964 2.1643 1.2964 1.1206 0 2.3621-.73608v1.0107q-1.1426.71411-2.406.71411zm-.47241-11.426q-2.1533 0-2.3621 4.2956h4.5813q0-1.9666-.60425-3.1311-.59326-1.1646-1.615-1.1646zM449.8786 328.01q-.46142 0-.73608-.18677v-.98877q.35156.17578.69214.17578.51636 0 .7251-.50537.21972-.49439.21972-1.5381v-14.282h1.0437v14.128q0 1.637-.47241 2.417-.47241.78003-1.4722.78003zm.74707-20.632q0-.49438.19776-.76904.20874-.27466.52734-.27466.29663 0 .47241.27466.17579.27466.17579.76904 0 .47241-.17579.75806-.17578.27466-.47241.27466-.3186 0-.52734-.27466-.19776-.28565-.19776-.75806zM458.3786 322.83q-1.8896 0-2.9114-1.604-1.0108-1.615-1.0108-4.4934 0-3.0542.90088-4.6582.91187-1.615 2.6148-1.615 1.4832 0 2.3401 1.4172.85693 1.4062.85693 3.8013v.9668h-5.647q.022 2.6038.73608 3.9001.71411 1.2964 2.1643 1.2964 1.1206 0 2.3621-.73608v1.0107q-1.1426.71411-2.406.71411zm-.47241-11.426q-2.1533 0-2.3621 4.2956h4.5813q0-1.9666-.60425-3.1311-.59326-1.1646-1.615-1.1646zM466.8986 322.83q-1.7908 0-2.7026-1.5491-.90088-1.5601-.90088-4.5703 0-3.0542.91187-4.6472.92285-1.604 2.7136-1.604 1.1096 0 1.8457.4065l-.40649.92285q-.73609-.34058-1.3513-.34058-2.6257 0-2.6257 5.2405 0 5.1965 2.6257 5.1965.78003 0 1.6919-.35157v.87891q-.36254.19775-.88989.30762-.52734.10986-.91186.10986zM472.9986 321.86q.48339 0 .85693-.13183v.8789q-.4834.21973-1.2415.21973-1.8457 0-1.8457-2.7576v-8.4595h-1.0767v-.61524l1.0547-.30761.34057-2.8345h.7251v2.8345h1.8896v.92285h-1.8896v8.1628q0 1.2085.26367 1.648.26368.43945.92286.43945zM479.1186 322.83q-1.8896 0-2.9114-1.604-1.0107-1.615-1.0107-4.4934 0-3.0542.90088-4.6582.91186-1.615 2.6148-1.615 1.4832 0 2.3401 1.4172.85694 1.4062.85694 3.8013v.9668h-5.647q.022 2.6038.73609 3.9001.71411 1.2964 2.1643 1.2964 1.1206 0 2.3621-.73608v1.0107q-1.1426.71411-2.406.71411zm-.47241-11.426q-2.1533 0-2.3621 4.2956h4.5813q0-1.9666-.60425-3.1311-.59326-1.1646-1.615-1.1646zM487.4786 322.83q-3.4717 0-3.4717-6.1633 0-3.0322.86792-4.6143.86792-1.593 2.5598-1.593.802 0 1.5161.46143.7251.46143 1.1536 1.2744h.0879l-.0439-1.3293v-5.3503h1.0437v17.095h-.85693l-.0879-1.6699h-.0989q-.42846.91187-1.1096 1.4062-.68115.4834-1.56.4834zm.0659-.91187q1.2524 0 1.9226-1.1536.68115-1.1646.68115-3.4168v-.68115q0-2.7026-.65918-3.9551-.64819-1.2634-1.9885-1.2634-1.2854 0-1.8457 1.3513-.56031 1.3403-.56031 3.8892 0 2.5708.58228 3.9002.58227 1.3293 1.8677 1.3293zM438.4786 344.57q0-2.8455.85694-5.4272.85693-2.5928 2.406-4.4714h.87891q-1.4722 2.1753-2.2302 4.7241-.75805 2.5378-.75805 5.1526 0 2.6697.79101 5.2624.802 2.5928 2.1753 4.4824h-.85694q-1.571-1.8347-2.417-4.3616-.84595-2.5268-.84595-5.3613zM451.1186 350.73h-5.8228v-16.062h5.8228v1.0327h-4.7461v6.0974h4.4824v1.0327h-4.4824v6.8665h4.7461v1.0327zM457.0986 338.58q.5603 0 1.0437.15381l-.25268 1.0437q-.39551-.16479-.81299-.16479-.60425 0-1.1316.62622-.51636.61523-.81299 1.7248t-.29663 2.45v6.3171h-1.0437v-11.92h.85693l.10986 2.0874h.0769q.83496-2.3181 2.2632-2.3181zM463.2486 338.58q.5603 0 1.0437.15381l-.25269 1.0437q-.39551-.16479-.81299-.16479-.60424 0-1.1316.62622-.51636.61523-.81299 1.7248t-.29663 2.45v6.3171h-1.0437v-11.92h.85693l.10987 2.0874h.0769q.83496-2.3181 2.2632-2.3181zM472.8086 344.75q0 3.0103-.95581 4.6143-.94482 1.593-2.7136 1.593-1.7468 0-2.6807-1.593-.92285-1.604-.92285-4.6143 0-6.1633 3.6475-6.1633 1.7139 0 2.6697 1.615.95581 1.615.95581 4.5483zm-6.1853 0q0 2.5818.61523 3.9002.61524 1.3184 1.9226 1.3184 2.5598 0 2.5598-5.2185 0-5.1746-2.5598-5.1746-1.3403 0-1.9446 1.2964-.59326 1.2964-.59326 3.8782zM478.7586 338.58q.5603 0 1.0437.15381l-.25268 1.0437q-.39551-.16479-.81299-.16479-.60425 0-1.1316.62622-.51636.61523-.81299 1.7248t-.29663 2.45v6.3171h-1.0437v-11.92h.85693l.10986 2.0874h.0769q.83496-2.3181 2.2632-2.3181zM485.0786 344.57q0 2.8345-.84595 5.3723-.83496 2.5268-2.417 4.3506h-.85693q1.4172-1.9885 2.1863-4.5593.78003-2.5708.78003-5.1856 0-2.6257-.75806-5.1526-.75806-2.5378-2.2302-4.7241h.87891q1.571 1.8677 2.417 4.4714.84595 2.6038.84595 5.4272z"/>
  </g>
  <path style="text-decoration-color:#000000;isolation:auto;mix-blend-mode:normal;block-progression:tb;text-decoration-line:none;text-decoration-style:solid;text-indent:0;text-transform:none" d="M287.9986 181c-27.602 0-50 22.398-50 50s22.398 50 50 50 50-22.398 50-50-22.398-50-50-50zm0 2c26.522 0 48 21.478 48 48s-21.478 48-48 48-48-21.478-48-48 21.478-48 48-48z" fill="#67a9cf" color="#000" solid-color="#000000" white-space="normal"/>
  <g>
    <path d="M267.5686 225.4q0 2.4829-1.1426 3.6475-1.1316 1.1646-3.3618 1.1646h-1.1426v6.6357h-1.0767v-16.062h2.1973q2.3511 0 3.4387 1.1096t1.0876 3.5046zm-5.647 3.8232h1.0767q1.8896 0 2.6807-.88989.79101-.8899.79101-2.9334 0-1.9446-.82397-2.7795-.81299-.84595-2.5269-.84595h-1.1975v7.4487zM273.2986 237.07q-1.8896 0-2.9114-1.604-1.0107-1.615-1.0107-4.4934 0-3.0542.90088-4.6582.91187-1.615 2.6148-1.615 1.4832 0 2.3401 1.4172.85693 1.4062.85693 3.8013v.9668h-5.647q.022 2.6038.73608 3.9001.71411 1.2964 2.1643 1.2964 1.1206 0 2.3621-.73609v1.0108q-1.1426.71411-2.406.71411zm-.47241-11.426q-2.1533 0-2.3621 4.2956h4.5813q0-1.9666-.60425-3.1311-.59326-1.1646-1.615-1.1646zM284.1286 236.85v-8.2178q0-2.9663-1.7578-2.9663-1.3403 0-1.9666 1.1096-.61524 1.1096-.61524 3.5266v6.5478h-1.0437v-11.92h.87891l.0879 1.6589h.0989q.37354-.90088 1.0767-1.3953.70313-.49439 1.5051-.49439 1.3843 0 2.0764.93384.69214.92285.69214 2.9773v8.2397h-1.0327zM291.2386 237.07q-3.4717 0-3.4717-6.1633 0-3.0322.86792-4.6143.86792-1.593 2.5598-1.593.802 0 1.5161.46143.7251.46142 1.1536 1.2744h.0879l-.0439-1.3293v-5.3504h1.0437v17.095h-.85693l-.0879-1.6699h-.0989q-.42846.91186-1.1096 1.4062-.68115.4834-1.56.4834zm.0659-.91187q1.2524 0 1.9226-1.1536.68115-1.1646.68115-3.4168v-.68115q0-2.7026-.65918-3.9551-.64819-1.2634-1.9885-1.2634-1.2854 0-1.8457 1.3513-.5603 1.3403-.5603 3.8892 0 2.5708.58228 3.9002.58227 1.3293 1.8677 1.3293zM299.1686 236.85h-1.0437v-11.92h1.0437v11.92zm-1.1975-15.227q0-.49438.19776-.76904.20874-.27466.52734-.27466.29663 0 .47241.27466.17579.27466.17579.76904 0 .47241-.17579.75806-.17578.27466-.47241.27466-.3186 0-.52734-.27466-.19776-.28565-.19776-.75806zM307.7286 236.85v-8.2178q0-2.9663-1.7578-2.9663-1.3403 0-1.9666 1.1096-.61524 1.1096-.61524 3.5266v6.5478h-1.0437v-11.92h.87891l.0879 1.6589h.0989q.37353-.90088 1.0767-1.3953.70312-.49439 1.5051-.49439 1.3843 0 2.0764.93384.69214.92285.69214 2.9773v8.2397h-1.0327zM318.1586 224.93v.73608l-1.626.18677q.32959.42846.53833 1.2305.20874.79101.20874 1.626 0 1.7358-.79102 2.8125-.78003 1.0767-2.0654 1.0767h-.26367l-.23071-.022q-.52734.37353-.83496.74707-.29663.37354-.29663.86792 0 .50537.39551.79102.3955.27465 1.0657.27465h.74707q1.593 0 2.4719.82398.87891.82397.87891 2.384 0 1.7468-1.1865 2.7686-1.1755 1.0217-3.1091 1.0217-1.615 0-2.4829-.82397-.86791-.81299-.86791-2.3511 0-1.1206.57128-1.9226.57129-.79102 1.7908-1.2524-.54932-.2417-.8899-.67017-.32959-.42847-.32959-1.0217 0-.53833.35157-.95581.36254-.42846 1.0217-.91186-.91186-.41748-1.3843-1.3513-.46143-.93384-.46143-2.1973 0-1.9006.802-2.9993.802-1.0986 2.1973-1.0986.74707 0 1.2524.23072h2.5269zm-6.416 14.062q0 1.1316.58228 1.7688.59326.63721 1.7798.63721 1.4722 0 2.3291-.76904.86792-.76904.86792-2.1094 0-1.0767-.59326-1.6699-.58228-.58227-1.7029-.58227h-.76904q-1.0767 0-1.7908.74707-.70312.75805-.70312 1.9775zm.64819-10.173q0 1.4612.53833 2.2192.53833.74707 1.4282.74707 1.9116 0 1.9116-3.0762 0-1.4832-.49439-2.3181-.4834-.83496-1.4172-.83496-.95581 0-1.4612.85693-.50537.85693-.50537 2.406z"/>
  </g>
  <path style="text-decoration-color:#000000;isolation:auto;mix-blend-mode:normal;block-progression:tb;text-decoration-line:none;text-decoration-style:solid;text-indent:0;text-transform:none" d="M88.0006 181c-27.602 0-50 22.398-50 50s22.398 50 50 50 50-22.398 50-50-22.398-50-50-50zm0 2c26.522 0 48 21.478 48 48s-21.478 48-48 48-48-21.478-48-48 21.478-48 48-48z" fill="#67a9cf" color="#000" solid-color="#000000" white-space="normal"/>
  <g>
    <path d="M65.3626 228.66q0 8.1848-5.1086 8.1848h-2.8564v-16.062H60.32q2.4829 0 3.7573 2.0105 1.2854 1.9995 1.2854 5.8667zm-1.1316.0659q0-3.3948-.99976-5.1746t-2.9553-1.7798h-1.8018v14.084h1.7139q2.0874 0 3.0652-1.8237.97778-1.8237.97778-5.3064zM71.5586 237.07q-1.8896 0-2.9114-1.604-1.0107-1.615-1.0107-4.4934 0-3.0542.90088-4.6582.91186-1.615 2.6147-1.615 1.4832 0 2.3401 1.4172.85693 1.4062.85693 3.8013v.9668h-5.647q.02197 2.6038.73608 3.9001.71411 1.2964 2.1643 1.2964 1.1206 0 2.3621-.73609v1.0108q-1.1426.71411-2.406.71411zm-.47241-11.426q-2.1533 0-2.3621 4.2956h4.5813q0-1.9666-.60425-3.1311-.59326-1.1646-1.615-1.1646zM80.0516 225.85h-1.8677v10.997h-1.0327V225.85h-1.5161v-.59326l1.5161-.45044v-.90088q0-2.2742.53833-3.2739.53833-.99975 1.8677-.99975.76904 0 1.3953.27465l-.36255.9668q-.58228-.27466-1.0547-.27466-.53833 0-.81299.31861-.27466.3186-.40649 1.0327-.13184.71411-.13184 1.9775v.99976h1.8677v.92285zM85.3576 237.07q-1.8896 0-2.9114-1.604-1.0107-1.615-1.0107-4.4934 0-3.0542.90088-4.6582.91186-1.615 2.6147-1.615 1.4832 0 2.3401 1.4172.85693 1.4062.85693 3.8013v.9668h-5.647q.02197 2.6038.73608 3.9001.71411 1.2964 2.1643 1.2964 1.1206 0 2.3621-.73609v1.0108q-1.1426.71411-2.406.71411zm-.472-11.43q-2.1533 0-2.3621 4.2956h4.5813q0-1.9666-.60425-3.1311-.59326-1.1646-1.615-1.1646zM94.1136 224.7q.5603 0 1.0437.15381l-.25269 1.0437q-.39551-.16479-.81299-.16479-.60425 0-1.1316.62622-.51636.61523-.81299 1.7248t-.29663 2.45v6.3171h-1.0437v-11.92h.85693l.10986 2.0874h.0769q.83496-2.3181 2.2632-2.3181zM100.2666 224.7q.5603 0 1.0437.15381l-.25269 1.0437q-.39551-.16479-.81299-.16479-.60425 0-1.1316.62622-.51636.61523-.81299 1.7248t-.29663 2.45v6.3171h-1.0437v-11.92h.85693l.10986 2.0874h.0769q.83496-2.3181 2.2632-2.3181zM106.4986 237.07q-1.8897 0-2.9114-1.604-1.0107-1.615-1.0107-4.4934 0-3.0542.90088-4.6582.91186-1.615 2.6147-1.615 1.4832 0 2.3401 1.4172.85693 1.4062.85693 3.8013v.9668h-5.647q.02197 2.6038.73608 3.9001.71411 1.2964 2.1643 1.2964 1.1206 0 2.3621-.73609v1.0108q-1.1426.71411-2.406.71411zm-.47242-11.426q-2.1533 0-2.3621 4.2956h4.5813q0-1.9666-.60424-3.1311-.59327-1.1646-1.615-1.1646zM114.8586 237.07q-3.4717 0-3.4717-6.1633 0-3.0322.86792-4.6143.86792-1.593 2.5598-1.593.802 0 1.5161.46143.7251.46142 1.1536 1.2744h.0879l-.0439-1.3293v-5.3504h1.0437v17.095h-.85693l-.0879-1.6699h-.0989q-.42847.91186-1.1096 1.4062-.68115.4834-1.5601.4834zm.0659-.91187q1.2524 0 1.9226-1.1536.68115-1.1646.68115-3.4168v-.68115q0-2.7026-.65918-3.9551-.64819-1.2634-1.9885-1.2634-1.2854 0-1.8457 1.3513-.5603 1.3403-.5603 3.8892 0 2.5708.58228 3.9002.58227 1.3293 1.8677 1.3293z"/>
  </g>
  <path style="text-decoration-color:#000000;isolation:auto;mix-blend-mode:normal;block-progression:tb;text-decoration-line:none;text-decoration-style:solid;text-indent:0;text-transform:none" d="M660.9986 81c-27.602 0-50 22.398-50 50s22.398 50 50 50 50-22.398 50-50-22.398-50-50-50zm0 2c26.522 0 48 21.478 48 48s-21.478 48-48 48-48-21.478-48-48 21.478-48 48-48z" fill="#67a9cf" color="#000" solid-color="#000000" white-space="normal"/>
  <g>
    <path d="M639.4286 136.85v-16.062h1.0767v16.062h-1.0767zM649.2586 136.85v-8.2178q0-2.9663-1.7578-2.9663-1.3403 0-1.9666 1.1096-.61524 1.1096-.61524 3.5266v6.5478h-1.0437v-11.92h.87891l.0879 1.6589h.0989q.37354-.90088 1.0767-1.3953.70313-.49439 1.5051-.49439 1.3843 0 2.0764.93384.69214.92285.69214 2.9773v8.2397h-1.0327zM654.7886 136.85l-2.8125-11.92h1.0547l1.7798 7.6684q.30761 1.3294.59326 2.9004h.0879q.0769-.57129.21973-1.2744.14282-.70313 2.1643-9.2944h1.0547l-2.9004 11.92h-1.2415zM665.2386 136.85l-.13183-1.6699h-.044q-.85693 1.8896-2.5928 1.8896-1.1646 0-1.8787-.92285-.70312-.93384-.70312-2.4939 0-1.7029 1.0217-2.6916 1.0217-.99976 2.8674-1.0876l1.2854-.0659v-.98876q0-1.6699-.41748-2.428-.41748-.76905-1.3843-.76905-1.0217 0-2.0874.67017l-.45044-.82397q1.2415-.76905 2.6038-.76905 1.4722 0 2.1204.93384.6482.92285.6482 3.0981v8.1189h-.85694zm-2.5378-.67016q1.1206 0 1.7358-1.0986.62622-1.1096.62622-3.1311v-1.2415l-1.2414.0659q-1.4392.0769-2.1423.802-.69214.71412-.69214 2.0984 0 1.2964.46143 1.9006.46142.60425 1.2524.60425zM670.2786 136.85h-1.0437v-17.095h1.0437v17.095zM674.4986 136.85h-1.0437v-11.92h1.0437v11.92zm-1.1975-15.227q0-.49438.19775-.76904.20874-.27466.52734-.27466.29664 0 .47242.27466t.17578.76904q0 .47241-.17578.75806-.17578.27466-.47242.27466-.3186 0-.52734-.27466-.19775-.28565-.19775-.75806zM680.5786 137.07q-3.4717 0-3.4717-6.1633 0-3.0322.86792-4.6143.86792-1.593 2.5598-1.593.802 0 1.5161.46143.7251.46142 1.1536 1.2744h.0879l-.0439-1.3293v-5.3504h1.0437v17.095h-.85693l-.0879-1.6699h-.0989q-.42847.91186-1.1096 1.4062-.68115.4834-1.5601.4834zm.0659-.91187q1.2524 0 1.9226-1.1536.68115-1.1646.68115-3.4168v-.68115q0-2.7026-.65918-3.9551-.64819-1.2634-1.9885-1.2634-1.2854 0-1.8457 1.3513-.5603 1.3403-.5603 3.8892 0 2.5708.58227 3.9002.58228 1.3293 1.8677 1.3293z"/>
  </g>
  <g>
    <path style="text-decoration-color:#000000;isolation:auto;mix-blend-mode:normal;block-progression:tb;text-decoration-line:none;text-decoration-style:solid;text-indent:0;text-transform:none" d="M483.7886 28.64c-91.338.0682-171.09 61.866-193.96 150.29l.9668.25c22.758-87.992 102.11-149.48 192.99-149.54 54.398.0252 106.43 22.262 144.04 61.562l.72265-.6914c-37.8-39.497-90.09-61.846-144.76-61.871z" fill="#ef8a62" color="#000" solid-color="#000000" white-space="normal"/>
    <path stroke-linejoin="round" d="M297.2786 169.82l-7.2881 10.529-1.2693-12.742c2.0454 2.5122 5.5043 3.3954 8.5574 2.2133z" fill-rule="evenodd" stroke="#ef8a62" stroke-width=".6875" fill="#ef8a62"/>
    <path style="text-decoration-color:#000000;isolation:auto;mix-blend-mode:normal;block-progression:tb;text-decoration-line:none;text-decoration-style:solid;text-indent:0;text-transform:none" d="M401.7686 124.4c-18.226-.4193-36.274 4.1532-52.162 13.293h-.002v.002c-18.126 10.503-32.496 26.432-41.082 45.541l.91211.41016c8.4995-18.917 22.726-34.688 40.67-45.086 17.977-10.341 38.746-14.775 59.379-12.678l.10156-.9961c-2.6051-.26486-5.2127-.42643-7.8164-.48632z" color="#000" solid-color="#000000" white-space="normal"/>
    <path stroke-linejoin="round" d="M399.3486 119.89l11.51 5.6125-12.404 3.1812c2.1741-2.4017 2.5242-5.9544.89405-8.7937z" fill-rule="evenodd" stroke="#000" stroke-width=".6875"/>
    <path style="text-decoration-color:#000000;isolation:auto;mix-blend-mode:normal;block-progression:tb;text-decoration-line:none;text-decoration-style:solid;text-indent:0;text-transform:none" d="M308.4686 277.79l-.91211.41016c8.5853 19.108 22.955 35.038 41.08 45.541 18.159 10.446 39.141 14.926 59.982 12.807l-.10156-.99414c-20.633 2.0978-41.404-2.3379-59.381-12.68v.002c-17.944-10.398-32.168-26.169-40.668-45.086z" fill="#ef8a62" color="#000" solid-color="#000000" white-space="normal"/>
    <path stroke-linejoin="round" d="M308.3486 289.57l-.89428-12.774 8.9568 9.1515c-3.167-.68203-6.4188.79114-8.0626 3.6225z" fill-rule="evenodd" stroke="#ef8a62" stroke-width=".6875" fill="#ef8a62"/>
  </g>
  <g>
    <path style="text-decoration-color:#000000;isolation:auto;mix-blend-mode:normal;block-progression:tb;text-decoration-line:none;text-decoration-style:solid;text-indent:0;text-transform:none" d="M347.4386 224.41c-2.6038.0599-5.2112.22145-7.8164.48633l.10157.9961c20.633-2.0979 41.404 2.3358 59.381 12.678 17.944 10.398 32.168 26.167 40.668 45.084l.91211-.40821c-8.5853-19.108-22.955-35.038-41.08-45.541-15.889-9.1405-33.94-13.714-52.166-13.295z" fill-opacity=".93725" color="#000" solid-color="#000000" white-space="normal"/>
    <path stroke-linejoin="round" d="M439.8986 271.88l.89431 12.774-8.9569-9.1515c3.167.68202 6.4188-.79115 8.0626-3.6225z" stroke-opacity=".93725" fill-rule="evenodd" fill-opacity=".93725" stroke="#000" stroke-width=".6875"/>
    <path style="text-decoration-color:#000000;isolation:auto;mix-blend-mode:normal;block-progression:tb;text-decoration-line:none;text-decoration-style:solid;text-indent:0;text-transform:none" d="M560.9986 81c-20.949.0322-41.358 6.6426-58.348 18.898l.58398.81054c16.819-12.133 37.025-18.677 57.764-18.709 20.739.0326 40.944 6.576 57.764 18.709l.58399-.81054c-16.989-12.255-37.398-18.865-58.346-18.898h-.002z" color="#000" solid-color="#000000" white-space="normal"/>
    <path stroke-linejoin="round" d="M612.9786 90.45l7.1615 10.615-12.333-3.447c3.0837-.99284 5.1632-3.8946 5.1711-7.1685z" fill-rule="evenodd" stroke="#000" stroke-width=".6875"/>
    <path style="text-decoration-color:#000000;isolation:auto;mix-blend-mode:normal;block-progression:tb;text-decoration-line:none;text-decoration-style:solid;text-indent:0;text-transform:none" d="M187.9986 181c-20.949.0332-41.358 6.6445-58.348 18.9l.58398.81055c16.819-12.133 37.025-18.678 57.764-18.711 20.739.0326 40.944 6.578 57.764 18.711l.58399-.81055c-16.989-12.255-37.398-18.867-58.346-18.9h-.002z" color="#000" solid-color="#000000" white-space="normal"/>
    <path stroke-linejoin="round" d="M239.9786 190.45l7.1615 10.615-12.333-3.447c3.0837-.99284 5.1632-3.8946 5.1711-7.1685z" fill-rule="evenodd" stroke="#000" stroke-width=".6875"/>
  </g>
</svg>
