<svg xmlns="http://www.w3.org/2000/svg" height="360" width="750" viewBox="0 0 750.00002 360">
  <path style="text-decoration-color:#000000;isolation:auto;mix-blend-mode:normal;block-progression:tb;text-decoration-line:none;text-decoration-style:solid;text-indent:0;text-transform:none" d="M461.499 30c-27.602 0-50 22.398-50 50s22.398 50 50 50 50-22.398 50-50-22.398-50-50-50zm0 2c26.522 0 48 21.478 48 48s-21.478 48-48 48-48-21.478-48-48 21.478-48 48-48z" fill="#67a9cf" color="#000" solid-color="#000000" white-space="normal"/>
  <path d="M436.059 71.61h-1.0767V55.548h5.8447v1.0327h-4.7681v6.8115h4.5044v1.0437h-4.5044V71.61zM443.819 59.69v7.7783q0 1.7688.41748 2.5818.42846.81299 1.3074.81299 1.3513 0 1.9775-1.0876.63721-1.0986.63721-3.5376v-6.5478h1.0327v11.92h-.87891l-.13183-1.6699h-.0879q-.38452.91187-1.0657 1.4062-.68115.4834-1.4832.4834-1.4392 0-2.1094-1.0217-.65918-1.0217-.65918-3.3398v-7.7783h1.0437zM453.439 71.61h-1.0437V54.515h1.0437V71.61zM459.659 60.61h-1.8677v10.997h-1.0327V60.61h-1.5161v-.59326l1.5161-.45044v-.90088q0-2.2742.53833-3.2739.53833-.99975 1.8677-.99975.76904 0 1.3953.27465l-.36255.9668q-.58227-.27466-1.0547-.27466-.53833 0-.81298.31861-.27466.3186-.4065 1.0327-.13183.71411-.13183 1.9775v.99976h1.8677v.92285zm2.9773 10.997h-1.0437v-11.92h1.0437v11.92zm-1.1975-15.227q0-.49438.19775-.76904.20874-.27466.52734-.27466.29663 0 .47242.27466.17578.27466.17578.76904 0 .47241-.17578.75806-.17579.27466-.47242.27466-.3186 0-.52734-.27466-.19775-.28565-.19775-.75806zM466.889 71.61h-1.0437V54.515h1.0437V71.61zM471.109 71.61h-1.0437V54.515h1.0437V71.61zM477.669 71.83q-1.8896 0-2.9114-1.604-1.0108-1.615-1.0108-4.4934 0-3.0542.90088-4.6582.91187-1.615 2.6148-1.615 1.4832 0 2.3401 1.4172.85693 1.4062.85693 3.8013v.9668h-5.647q.022 2.6038.73608 3.9001.71411 1.2964 2.1643 1.2964 1.1206 0 2.3621-.73609v1.0108q-1.1426.71411-2.406.71411zm-.47241-11.426q-2.1533 0-2.3621 4.2956h4.5813q0-1.9666-.60425-3.1311-.59326-1.1646-1.615-1.1646zM486.029 71.83q-3.4717 0-3.4717-6.1633 0-3.0322.86792-4.6143.86792-1.593 2.5598-1.593.80201 0 1.5161.46143.72509.46142 1.1536 1.2744h.0879l-.0439-1.3293v-5.3503h1.0437v17.095h-.85694l-.0879-1.6699h-.0989q-.42847.91187-1.1096 1.4062-.68116.4834-1.5601.4834zm.0659-.91187q1.2524 0 1.9226-1.1536.68116-1.1646.68116-3.4168v-.68115q0-2.7026-.65918-3.9551-.6482-1.2634-1.9885-1.2634-1.2854 0-1.8457 1.3513-.5603 1.3403-.5603 3.8892 0 2.5708.58227 3.9002.58228 1.3293 1.8677 1.3293zM437.209 93.57q0-2.8455.85693-5.4272.85693-2.5928 2.406-4.4714h.8789q-1.4722 2.1753-2.2302 4.7241-.75806 2.5378-.75806 5.1526 0 2.6697.79102 5.2624.802 2.5928 2.1753 4.4824h-.85693q-1.571-1.8347-2.417-4.3616-.84594-2.5269-.84594-5.3613zM449.929 83.67h1.1096l-3.8013 16.062h-1.1975l-3.7793-16.062h1.1206l2.6148 11.294q.30762 1.2964.40649 1.9116.0989.60424.19776 1.5271.0879-.63721.18676-1.2524.0989-.61523.18677-1.0327.0989-.42847 2.9553-12.448zM457.259 99.73l-.13184-1.6699h-.0439q-.85693 1.8896-2.5928 1.8896-1.1646 0-1.8787-.92285-.70313-.93384-.70313-2.4939 0-1.7029 1.0217-2.6916 1.0217-.99976 2.8674-1.0876l1.2854-.0659v-.98877q0-1.6699-.41748-2.428-.41748-.76905-1.3843-.76905-1.0217 0-2.0874.67017l-.45044-.82397q1.2415-.76905 2.6038-.76905 1.4722 0 2.1204.93384.64819.92285.64819 3.0982v8.1189h-.85693zm-2.5378-.67016q1.1206 0 1.7358-1.0986.62622-1.1096.62622-3.1311v-1.2415l-1.2414.0659q-1.4392.0769-2.1423.802-.69213.71412-.69213 2.0984 0 1.2964.46142 1.9006.46143.60425 1.2524.60425zM462.299 99.73h-1.0437V82.635h1.0437V99.73zM466.469 87.81v7.7783q0 1.7688.41749 2.5818.42846.81299 1.3074.81299 1.3513 0 1.9775-1.0876.6372-1.0986.6372-3.5376v-6.5478h1.0327v11.92h-.87891l-.13183-1.6699h-.0879q-.38453.91187-1.0657 1.4062-.68115.4834-1.4832.4834-1.4392 0-2.1094-1.0217-.65918-1.0217-.65918-3.3398v-7.7783h1.0437zM478.439 99.95q-1.8896 0-2.9114-1.604-1.0107-1.615-1.0107-4.4934 0-3.0542.90088-4.6582.91186-1.615 2.6147-1.615 1.4832 0 2.3401 1.4172.85693 1.4062.85693 3.8013v.9668h-5.647q.022 2.6038.73608 3.9001.71412 1.2964 2.1643 1.2964 1.1206 0 2.3621-.73609v1.0108q-1.1426.71411-2.406.71411zm-.47242-11.426q-2.1533 0-2.3621 4.2956h4.5813q0-1.9666-.60425-3.1311-.59326-1.1646-1.615-1.1646zM487.359 93.57q0 2.8345-.84594 5.3723-.83496 2.5268-2.417 4.3506h-.85693q1.4172-1.9885 2.1863-4.5593.78003-2.5708.78003-5.1856 0-2.6257-.75806-5.1526-.75805-2.5378-2.2302-4.7241h.8789q1.571 1.8677 2.417 4.4714.84594 2.6038.84594 5.4272z"/>
  <path style="text-decoration-color:#000000;isolation:auto;mix-blend-mode:normal;block-progression:tb;text-decoration-line:none;text-decoration-style:solid;text-indent:0;text-transform:none" d="M461.499 230c-27.602 0-50 22.398-50 50s22.398 50 50 50 50-22.398 50-50-22.398-50-50-50zm0 2c26.522 0 48 21.478 48 48s-21.478 48-48 48-48-21.478-48-48 21.478-48 48-48z" fill="#67a9cf" color="#000" solid-color="#000000" white-space="normal"/>
  <g>
    <path d="M434.109 264.59v7.0203h-1.0767v-16.062h2.1973q2.3511 0 3.4387 1.1096t1.0876 3.3179q0 1.6699-.59326 2.7466t-1.9885 1.615l3.186 7.273h-1.2085l-2.9993-7.0203h-2.0435zm0-.98877h1.5051q1.4612 0 2.2522-.90088.79101-.90088.79101-2.6807 0-1.8127-.81299-2.6147-.802-.802-2.5378-.802h-1.1975v6.9983zM445.829 271.83q-1.8896 0-2.9114-1.604-1.0108-1.615-1.0108-4.4934 0-3.0542.90088-4.6582.91187-1.615 2.6148-1.615 1.4832 0 2.3401 1.4172.85693 1.4062.85693 3.8013v.96679h-5.647q.022 2.6038.73608 3.9002.71411 1.2964 2.1643 1.2964 1.1206 0 2.3621-.73609v1.0108q-1.1426.71411-2.406.71411zm-.47-11.43q-2.1533 0-2.3621 4.2956h4.5813q0-1.9666-.60425-3.1311-.59326-1.1646-1.615-1.1646zM450.379 277.01q-.46142 0-.73608-.18676v-.98877q.35156.17578.69214.17578.51636 0 .7251-.50537.21972-.49439.21972-1.5381v-14.282h1.0437v14.128q0 1.637-.47241 2.417-.47241.78003-1.4722.78003zm.74707-20.632q0-.49438.19776-.76904.20874-.27466.52734-.27466.29663 0 .47241.27466.17579.27466.17579.76904 0 .47241-.17579.75806-.17578.27465-.47241.27465-.3186 0-.52734-.27465-.19776-.28565-.19776-.75806zM458.879 271.83q-1.8896 0-2.9114-1.604-1.0107-1.615-1.0107-4.4934 0-3.0542.90088-4.6582.91187-1.615 2.6148-1.615 1.4832 0 2.3401 1.4172.85693 1.4062.85693 3.8013v.96679h-5.647q.022 2.6038.73608 3.9002.71411 1.2964 2.1643 1.2964 1.1206 0 2.3621-.73609v1.0108q-1.1426.71411-2.406.71411zm-.47241-11.426q-2.1533 0-2.3621 4.2956h4.5813q0-1.9666-.60425-3.1311-.59326-1.1646-1.615-1.1646zM467.399 271.83q-1.7908 0-2.7026-1.5491-.90088-1.56-.90088-4.5703 0-3.0542.91187-4.6472.92285-1.604 2.7136-1.604 1.1096 0 1.8457.4065l-.40649.92285q-.73609-.34058-1.3513-.34058-2.6257 0-2.6257 5.2405 0 5.1965 2.6257 5.1965.78003 0 1.6919-.35156v.87891q-.36254.19775-.88989.30761-.52734.10987-.91186.10987zM473.499 270.86q.4834 0 .85694-.13184v.87891q-.4834.21973-1.2415.21973-1.8457 0-1.8457-2.7576v-8.4595h-1.0767v-.61524l1.0547-.30762.34057-2.8345h.7251v2.8345h1.8896v.92286h-1.8896v8.1628q0 1.2085.26367 1.648.26367.43945.92285.43945zM479.619 271.83q-1.8896 0-2.9114-1.604-1.0107-1.615-1.0107-4.4934 0-3.0542.90088-4.6582.91186-1.615 2.6148-1.615 1.4832 0 2.3401 1.4172.85694 1.4062.85694 3.8013v.96679h-5.647q.022 2.6038.73609 3.9002.71411 1.2964 2.1643 1.2964 1.1206 0 2.3621-.73609v1.0108q-1.1426.71411-2.406.71411zm-.47241-11.426q-2.1533 0-2.3621 4.2956h4.5813q0-1.9666-.60425-3.1311-.59326-1.1646-1.615-1.1646zM487.979 271.83q-3.4717 0-3.4717-6.1633 0-3.0322.86792-4.6143.86792-1.593 2.5598-1.593.802 0 1.5161.46143.7251.46142 1.1536 1.2744h.0879l-.0439-1.3293v-5.3504h1.0437v17.095h-.85693l-.0879-1.6699h-.0989q-.42846.91186-1.1096 1.4062-.68115.4834-1.56.4834zm.0659-.91187q1.2524 0 1.9226-1.1536.68115-1.1646.68115-3.4168v-.68115q0-2.7026-.65918-3.9551-.64819-1.2634-1.9885-1.2634-1.2854 0-1.8457 1.3513-.5603 1.3403-.5603 3.8892 0 2.5708.58228 3.9002.58227 1.3293 1.8677 1.3293zM438.979 293.57q0-2.8455.85694-5.4272.85693-2.5928 2.406-4.4714h.87891q-1.4722 2.1753-2.2302 4.7241-.75805 2.5378-.75805 5.1526 0 2.6697.79101 5.2624.802 2.5928 2.1753 4.4824h-.85693q-1.571-1.8347-2.417-4.3616-.84595-2.5269-.84595-5.3613zM451.619 299.73h-5.8228v-16.062h5.8228v1.0327h-4.7461v6.0974h4.4824v1.0327h-4.4824v6.8665h4.7461v1.0327zM457.599 287.58q.5603 0 1.0437.15381l-.25268 1.0437q-.39551-.16479-.81299-.16479-.60425 0-1.1316.62622-.51636.61523-.81299 1.7248t-.29663 2.45v6.3171h-1.0437v-11.92h.85693l.10986 2.0874h.0769q.83496-2.3181 2.2632-2.3181zM463.749 287.58q.5603 0 1.0437.15381l-.25269 1.0437q-.39551-.16479-.81299-.16479-.60425 0-1.1316.62622-.51636.61523-.81299 1.7248t-.29663 2.45v6.3171h-1.0437v-11.92h.85693l.10987 2.0874h.0769q.83496-2.3181 2.2632-2.3181zM473.309 293.75q0 3.0103-.95581 4.6143-.94482 1.593-2.7136 1.593-1.7468 0-2.6807-1.593-.92285-1.604-.92285-4.6143 0-6.1633 3.6475-6.1633 1.7139 0 2.6697 1.615.95581 1.615.95581 4.5483zm-6.1853 0q0 2.5818.61523 3.9002.61524 1.3184 1.9226 1.3184 2.5598 0 2.5598-5.2185 0-5.1746-2.5598-5.1746-1.3403 0-1.9446 1.2964-.59326 1.2964-.59326 3.8782zM479.259 287.58q.5603 0 1.0437.15381l-.25268 1.0437q-.39551-.16479-.81299-.16479-.60425 0-1.1316.62622-.51636.61523-.81299 1.7248t-.29663 2.45v6.3171h-1.0437v-11.92h.85693l.10986 2.0874h.0769q.83496-2.3181 2.2632-2.3181zM485.579 293.57q0 2.8345-.84595 5.3723-.83496 2.5268-2.417 4.3506h-.85693q1.4172-1.9885 2.1863-4.5593.78002-2.5708.78002-5.1855 0-2.6257-.75805-5.1526-.75806-2.5378-2.2302-4.7241h.87891q1.571 1.8677 2.417 4.4714.84595 2.6038.84595 5.4272z"/>
  </g>
  <path style="text-decoration-color:#000000;isolation:auto;mix-blend-mode:normal;block-progression:tb;text-decoration-line:none;text-decoration-style:solid;text-indent:0;text-transform:none" d="M288.499 130c-27.602 0-50 22.398-50 50s22.398 50 50 50 50-22.398 50-50-22.398-50-50-50zm0 2c26.522 0 48 21.478 48 48s-21.478 48-48 48-48-21.478-48-48 21.478-48 48-48z" fill="#67a9cf" color="#000" solid-color="#000000" white-space="normal"/>
  <g>
    <path d="M268.069 174.4q0 2.4829-1.1426 3.6475-1.1316 1.1646-3.3618 1.1646h-1.1426v6.6357h-1.0767v-16.062h2.1973q2.3511 0 3.4387 1.1096t1.0876 3.5046zm-5.647 3.8232h1.0767q1.8896 0 2.6807-.88989.79101-.8899.79101-2.9334 0-1.9446-.82397-2.7795-.81299-.84595-2.5269-.84595h-1.1975v7.4487zM273.799 186.07q-1.8896 0-2.9114-1.604-1.0107-1.615-1.0107-4.4934 0-3.0542.90088-4.6582.91187-1.615 2.6148-1.615 1.4832 0 2.3401 1.4172.85693 1.4062.85693 3.8013v.96679h-5.647q.022 2.6038.73608 3.9002.71411 1.2964 2.1643 1.2964 1.1206 0 2.3621-.73609v1.0108q-1.1426.71411-2.406.71411zm-.47241-11.426q-2.1533 0-2.3621 4.2956h4.5813q0-1.9666-.60425-3.1311-.59326-1.1646-1.615-1.1646zM284.629 185.85v-8.2178q0-2.9663-1.7578-2.9663-1.3403 0-1.9666 1.1096-.61524 1.1096-.61524 3.5266v6.5478h-1.0437v-11.92h.87891l.0879 1.6589h.0989q.37354-.90088 1.0767-1.3953.70313-.49439 1.5051-.49439 1.3843 0 2.0764.93384.69214.92285.69214 2.9773v8.2398h-1.0327zM291.739 186.07q-3.4717 0-3.4717-6.1633 0-3.0322.86792-4.6143.86792-1.593 2.5598-1.593.802 0 1.5161.46143.7251.46142 1.1536 1.2744h.0879l-.0439-1.3293v-5.3504h1.0437v17.095h-.85693l-.0879-1.6699h-.0989q-.42846.91186-1.1096 1.4062-.68115.4834-1.56.4834zm.0659-.91187q1.2524 0 1.9226-1.1536.68115-1.1646.68115-3.4168v-.68115q0-2.7026-.65918-3.9551-.64819-1.2634-1.9885-1.2634-1.2854 0-1.8457 1.3513-.5603 1.3403-.5603 3.8892 0 2.5708.58228 3.9002.58227 1.3293 1.8677 1.3293zM299.669 185.85h-1.0437v-11.92h1.0437v11.92zm-1.1975-15.227q0-.49439.19776-.76904.20874-.27466.52734-.27466.29663 0 .47241.27466.17579.27465.17579.76904 0 .47241-.17579.75806-.17578.27465-.47241.27465-.3186 0-.52734-.27465-.19776-.28565-.19776-.75806zM308.229 185.85v-8.2178q0-2.9663-1.7578-2.9663-1.3403 0-1.9666 1.1096-.61524 1.1096-.61524 3.5266v6.5478h-1.0437v-11.92h.87891l.0879 1.6589h.0989q.37353-.90088 1.0767-1.3953.70312-.49439 1.5051-.49439 1.3843 0 2.0764.93384.69214.92285.69214 2.9773v8.2398h-1.0327zM318.659 173.93v.73609l-1.626.18677q.32959.42846.53833 1.2305.20874.79102.20874 1.626 0 1.7358-.79102 2.8125-.78003 1.0767-2.0654 1.0767h-.26367l-.23071-.022q-.52734.37353-.83496.74707-.29663.37353-.29663.86792 0 .50537.39551.79101.3955.27466 1.0657.27466h.74707q1.593 0 2.4719.82398.87891.82397.87891 2.384 0 1.7468-1.1865 2.7686-1.1755 1.0217-3.1091 1.0217-1.615 0-2.4829-.82397-.86791-.81299-.86791-2.3511 0-1.1206.57128-1.9226.57129-.79102 1.7908-1.2524-.54932-.2417-.8899-.67017-.32959-.42847-.32959-1.0217 0-.53833.35157-.95581.36254-.42847 1.0217-.91186-.91186-.41748-1.3843-1.3513-.46143-.93384-.46143-2.1973 0-1.9006.802-2.9993.802-1.0986 2.1973-1.0986.74707 0 1.2524.23071h2.5269zm-6.416 14.062q0 1.1316.58228 1.7688.59326.63721 1.7798.63721 1.4722 0 2.3291-.76904.86792-.76905.86792-2.1094 0-1.0767-.59326-1.6699-.58228-.58228-1.7029-.58228h-.76904q-1.0767 0-1.7908.74708-.70312.75805-.70312 1.9775zm.64819-10.173q0 1.4612.53833 2.2192.53833.74707 1.4282.74707 1.9116 0 1.9116-3.0762 0-1.4832-.49439-2.3181-.4834-.83497-1.4172-.83497-.95581 0-1.4612.85694-.50537.85693-.50537 2.406z"/>
    <path style="text-decoration-color:#000000;isolation:auto;mix-blend-mode:normal;block-progression:tb;text-decoration-line:none;text-decoration-style:solid;text-indent:0;text-transform:none" d="M402.269 73.4c-18.226-.4193-36.274 4.1532-52.162 13.293h-.002v.002c-18.126 10.503-32.496 26.432-41.082 45.541l.91211.41016c8.4995-18.917 22.726-34.688 40.67-45.086 17.977-10.341 38.746-14.775 59.379-12.678l.10156-.9961c-2.6051-.26486-5.2127-.42643-7.8164-.48632z" color="#000" solid-color="#000000" white-space="normal"/>
    <path stroke-linejoin="round" d="M399.849 68.89l11.51 5.6125-12.404 3.1812c2.1741-2.4017 2.5242-5.9544.89405-8.7937z" fill-rule="evenodd" stroke="#000" stroke-width=".6875"/>
  </g>
  <path style="text-decoration-color:#000000;isolation:auto;mix-blend-mode:normal;block-progression:tb;text-decoration-line:none;text-decoration-style:solid;text-indent:0;text-transform:none" d="M308.969 226.79l-.91211.41016c8.5853 19.108 22.955 35.038 41.08 45.541 18.159 10.446 39.141 14.926 59.982 12.807l-.10156-.99414c-20.633 2.0978-41.404-2.3379-59.381-12.68v.002c-17.944-10.398-32.168-26.169-40.668-45.086z" fill="#ef8a62" color="#000" solid-color="#000000" white-space="normal"/>
  <path stroke-linejoin="round" d="M308.849 238.57l-.89428-12.774 8.9568 9.1515c-3.167-.68203-6.4188.79114-8.0626 3.6225z" fill-rule="evenodd" stroke="#ef8a62" stroke-width=".6875" fill="#ef8a62"/>
  <path style="text-decoration-color:#000000;isolation:auto;mix-blend-mode:normal;block-progression:tb;text-decoration-line:none;text-decoration-style:solid;text-indent:0;text-transform:none" d="M347.939 173.41c-2.6038.0599-5.2112.22145-7.8164.48633l.10157.9961c20.633-2.0979 41.404 2.3358 59.381 12.678 17.944 10.398 32.168 26.167 40.668 45.084l.91211-.40821c-8.5853-19.108-22.955-35.038-41.08-45.541-15.889-9.1405-33.94-13.714-52.166-13.295z" fill-opacity=".93725" color="#000" solid-color="#000000" white-space="normal"/>
  <path stroke-linejoin="round" d="M440.399 220.88l.89431 12.774-8.9569-9.1515c3.167.68202 6.4188-.79115 8.0626-3.6225z" stroke-opacity=".93725" fill-rule="evenodd" fill-opacity=".93725" stroke="#000" stroke-width=".6875"/>
</svg>
