<svg xmlns="http://www.w3.org/2000/svg" height="160" width="750" viewBox="0 0 750.00002 160">
  <path style="text-decoration-color:#000000;isolation:auto;mix-blend-mode:normal;block-progression:tb;text-decoration-line:none;text-decoration-style:solid;text-indent:0;text-transform:none" d="M474.9971 30.007c-27.602 0-50 22.398-50 50s22.398 50 50 50 50-22.398 50-50-22.398-50-50-50zm0 2c26.522 0 48 21.478 48 48s-21.478 48-48 48-48-21.478-48-48 21.478-48 48-48z" fill="#67a9cf" color="#000" solid-color="#000000" white-space="normal"/>
  <path d="M453.4271 85.847V69.785h1.0767v16.062h-1.0767zM463.2571 85.847v-8.2178q0-2.9663-1.7578-2.9663-1.3403 0-1.9666 1.1096-.61524 1.1096-.61524 3.5266v6.5478h-1.0437v-11.92h.87891l.0879 1.6589h.0989q.37354-.90088 1.0767-1.3953.70313-.49439 1.5051-.49439 1.3843 0 2.0764.93384.69214.92285.69214 2.9773v8.2397h-1.0327zM468.7871 85.847l-2.8125-11.92h1.0547l1.7798 7.6684q.30761 1.3294.59326 2.9004h.0879q.0769-.57128.21973-1.2744.14282-.70312 2.1643-9.2944h1.0547l-2.9004 11.92h-1.2415zM479.2371 85.847l-.13183-1.6699h-.0439q-.85693 1.8896-2.5928 1.8896-1.1646 0-1.8787-.92285-.70313-.93384-.70313-2.4939 0-1.7029 1.0217-2.6916 1.0217-.99976 2.8674-1.0876l1.2854-.0659v-.98877q0-1.6699-.41748-2.428-.41748-.76904-1.3843-.76904-1.0217 0-2.0874.67016l-.45044-.82397q1.2415-.76905 2.6038-.76905 1.4722 0 2.1204.93384.6482.92285.6482 3.0982v8.1189h-.85694zm-2.5378-.67016q1.1206 0 1.7358-1.0986.62622-1.1096.62622-3.1311v-1.2414l-1.2414.0659q-1.4392.0769-2.1423.80201-.69214.71411-.69214 2.0984 0 1.2964.46143 1.9006.46142.60425 1.2524.60425zM484.2771 85.847h-1.0437V68.752h1.0437v17.095zM488.4971 85.847h-1.0437v-11.92h1.0437v11.92zm-1.1975-15.227q0-.49438.19775-.76904.20874-.27466.52734-.27466.29664 0 .47242.27466t.17578.76904q0 .47241-.17578.75806-.17578.27466-.47242.27466-.3186 0-.52734-.27466-.19775-.28565-.19775-.75806zM494.5871 86.067q-3.4717 0-3.4717-6.1633 0-3.0322.86792-4.6143.86792-1.593 2.5598-1.593.802 0 1.5161.46143.7251.46143 1.1536 1.2744h.0879l-.0439-1.3293v-5.3503h1.0437v17.095h-.85693l-.0879-1.6699h-.0989q-.42847.91187-1.1096 1.4062-.68115.4834-1.5601.4834zm.0659-.91187q1.2524 0 1.9226-1.1536.68115-1.1646.68115-3.4168v-.68115q0-2.7026-.65918-3.9551-.64819-1.2634-1.9885-1.2634-1.2854 0-1.8457 1.3513-.5603 1.3403-.5603 3.8892 0 2.5708.58227 3.9002.58228 1.3293 1.8677 1.3293z"/>
  <path style="text-decoration-color:#000000;isolation:auto;mix-blend-mode:normal;block-progression:tb;text-decoration-line:none;text-decoration-style:solid;text-indent:0;text-transform:none" d="M274.9971 30.007c-27.602 0-50 22.398-50 50s22.398 50 50 50 50-22.398 50-50-22.398-50-50-50zm0 2c26.522 0 48 21.478 48 48s-21.478 48-48 48-48-21.478-48-48 21.478-48 48-48z" fill="#67a9cf" color="#000" solid-color="#000000" white-space="normal"/>
  <g>
    <path d="M262.5471 69.787h1.1096l-3.8013 16.062h-1.1975l-3.7793-16.062h1.1206l2.6147 11.294q.30762 1.2964.4065 1.9116.0989.60425.19775 1.5271.0879-.63721.18677-1.2524.0989-.61524.18677-1.0327.0989-.42847 2.9553-12.448zM269.8771 85.847l-.13184-1.6699h-.0439q-.85693 1.8896-2.5928 1.8896-1.1646 0-1.8787-.92285-.70312-.93384-.70312-2.4939 0-1.7029 1.0217-2.6916 1.0217-.99976 2.8674-1.0876l1.2854-.0659v-.98877q0-1.6699-.41748-2.428-.41748-.76904-1.3843-.76904-1.0217 0-2.0874.67016l-.45044-.82397q1.2414-.76905 2.6038-.76905 1.4722 0 2.1204.93384.64819.92285.64819 3.0982v8.1189h-.85693zm-2.5378-.67016q1.1206 0 1.7358-1.0986.62622-1.1096.62622-3.1311v-1.2414l-1.2415.0659q-1.4392.0769-2.1423.80201-.69214.71411-.69214 2.0984 0 1.2964.46143 1.9006.46142.60425 1.2524.60425zM274.9171 85.847h-1.0437V68.752h1.0437v17.095zM279.0971 73.927v7.7783q0 1.7688.41748 2.5818.42847.81299 1.3074.81299 1.3513 0 1.9775-1.0876.63721-1.0986.63721-3.5376v-6.5478h1.0327v11.92h-.8789l-.13184-1.6699h-.0879q-.38452.91187-1.0657 1.4062-.68115.4834-1.4832.4834-1.4392 0-2.1094-1.0217-.65918-1.0217-.65918-3.3398v-7.7783h1.0437zM291.0571 86.067q-1.8896 0-2.9114-1.604-1.0107-1.615-1.0107-4.4934 0-3.0542.90088-4.6582.91187-1.615 2.6148-1.615 1.4832 0 2.3401 1.4172.85693 1.4062.85693 3.8013v.9668h-5.647q.022 2.6038.73608 3.9001.71411 1.2964 2.1643 1.2964 1.1206 0 2.3621-.73608v1.0107q-1.1426.71411-2.406.71411zm-.47241-11.426q-2.1533 0-2.3621 4.2956h4.5813q0-1.9666-.60425-3.1311-.59326-1.1646-1.615-1.1646z"/>
    <path style="text-decoration-color:#000000;isolation:auto;mix-blend-mode:normal;block-progression:tb;text-decoration-line:none;text-decoration-style:solid;text-indent:0;text-transform:none" d="M374.9971 30.007c-20.949.0332-41.36 6.6426-58.35 18.898l.58594.81055c16.82-12.133 37.024-18.676 57.764-18.709 20.739.0326 40.942 6.576 57.762 18.709l.58593-.81055c-16.989-12.255-37.399-18.865-58.348-18.898z" color="#000" solid-color="#000000" white-space="normal"/>
    <path stroke-linejoin="round" d="M426.9771 39.457l7.1615 10.615-12.333-3.447c3.0837-.99284 5.1632-3.8946 5.1711-7.1685z" fill-rule="evenodd" stroke="#000" stroke-width=".6875"/>
  </g>
  <path style="text-decoration-color:#000000;isolation:auto;mix-blend-mode:normal;block-progression:tb;text-decoration-line:none;text-decoration-style:solid;text-indent:0;text-transform:none" d="M318.3771 110.297l-.58594.81055c16.989 12.255 37.398 18.867 58.346 18.9h.002c20.949-.0332 41.36-6.6445 58.35-18.9l-.58594-.81055c-16.819 12.133-37.025 18.678-57.764 18.711-20.739-.0326-40.942-6.578-57.762-18.711z" fill="#ef8a62" color="#000" solid-color="#000000" white-space="normal"/>
  <path stroke-linejoin="round" d="M324.1571 120.557l-7.1615-10.615 12.333 3.447c-3.0837.99284-5.1632 3.8946-5.1711 7.1685z" fill-rule="evenodd" stroke="#ef8a62" stroke-width=".6875" fill="#ef8a62"/>
</svg>
